<?xml version="1.0" encoding="UTF-8" standalone="no"?>
<svg
   xmlns:dc="http://purl.org/dc/elements/1.1/"
   xmlns:cc="http://creativecommons.org/ns#"
   xmlns:rdf="http://www.w3.org/1999/02/22-rdf-syntax-ns#"
   xmlns:svg="http://www.w3.org/2000/svg"
   xmlns="http://www.w3.org/2000/svg"
   xmlns:sodipodi="http://sodipodi.sourceforge.net/DTD/sodipodi-0.dtd"
   xmlns:inkscape="http://www.inkscape.org/namespaces/inkscape"
   width="176mm"
   height="250mm"
   viewBox="0 0 176 250"
   version="1.1"
   id="svg72"
   sodipodi:docname="titlepage.svg"
   inkscape:version="1.0.2-2 (e86c870879, 2021-01-15)">
  <defs
     id="defs66">
    <g
       id="g7171">
      <symbol
         overflow="visible"
         id="symbol8471">
        <path
           style="stroke:none;"
           d=""
           id="path9799" />
      </symbol>
      <symbol
         overflow="visible"
         id="symbol7856">
        <path
           style="stroke:none;"
           d="M 6.640625 -6.75 L 0.546875 -6.75 L 0.359375 -4.5 L 0.609375 -4.5 C 0.75 -6.109375 0.890625 -6.4375 2.40625 -6.4375 C 2.578125 -6.4375 2.84375 -6.4375 2.9375 -6.421875 C 3.15625 -6.375 3.15625 -6.265625 3.15625 -6.046875 L 3.15625 -0.78125 C 3.15625 -0.453125 3.15625 -0.3125 2.109375 -0.3125 L 1.703125 -0.3125 L 1.703125 0 C 2.109375 -0.03125 3.125 -0.03125 3.59375 -0.03125 C 4.046875 -0.03125 5.078125 -0.03125 5.484375 0 L 5.484375 -0.3125 L 5.078125 -0.3125 C 4.03125 -0.3125 4.03125 -0.453125 4.03125 -0.78125 L 4.03125 -6.046875 C 4.03125 -6.234375 4.03125 -6.375 4.21875 -6.421875 C 4.328125 -6.4375 4.59375 -6.4375 4.78125 -6.4375 C 6.296875 -6.4375 6.4375 -6.109375 6.578125 -4.5 L 6.828125 -4.5 Z M 6.640625 -6.75 "
           id="path8750" />
      </symbol>
      <symbol
         overflow="visible"
         id="symbol5223">
        <path
           style="stroke:none;"
           d="M 1.359375 -0.78125 C 1.359375 -0.421875 1.328125 -0.3125 0.5625 -0.3125 L 0.328125 -0.3125 L 0.328125 0 L 6.078125 0 L 6.5 -2.578125 L 6.25 -2.578125 C 6 -1.03125 5.765625 -0.3125 4.0625 -0.3125 L 2.734375 -0.3125 C 2.265625 -0.3125 2.25 -0.375 2.25 -0.703125 L 2.25 -3.375 L 3.140625 -3.375 C 4.109375 -3.375 4.21875 -3.046875 4.21875 -2.203125 L 4.46875 -2.203125 L 4.46875 -4.84375 L 4.21875 -4.84375 C 4.21875 -3.984375 4.109375 -3.671875 3.140625 -3.671875 L 2.25 -3.671875 L 2.25 -6.078125 C 2.25 -6.40625 2.265625 -6.46875 2.734375 -6.46875 L 4.015625 -6.46875 C 5.546875 -6.46875 5.8125 -5.921875 5.96875 -4.53125 L 6.21875 -4.53125 L 5.9375 -6.78125 L 0.328125 -6.78125 L 0.328125 -6.46875 L 0.5625 -6.46875 C 1.328125 -6.46875 1.359375 -6.359375 1.359375 -6 Z M 1.359375 -0.78125 "
           id="path1999" />
      </symbol>
      <symbol
         overflow="visible"
         id="symbol8670">
        <path
           style="stroke:none;"
           d="M 4 -3.84375 L 5.375 -5.859375 C 5.59375 -6.171875 5.9375 -6.484375 6.8125 -6.5 L 6.8125 -6.8125 C 6.4375 -6.796875 5.96875 -6.78125 5.71875 -6.78125 C 5.3125 -6.78125 4.828125 -6.78125 4.4375 -6.8125 L 4.4375 -6.5 C 4.828125 -6.484375 5.046875 -6.265625 5.046875 -6.046875 C 5.046875 -5.9375 5.03125 -5.921875 4.96875 -5.8125 L 3.828125 -4.125 L 2.546875 -6.046875 C 2.515625 -6.078125 2.46875 -6.15625 2.46875 -6.203125 C 2.46875 -6.3125 2.6875 -6.484375 3.125 -6.5 L 3.125 -6.8125 C 2.765625 -6.78125 2.046875 -6.78125 1.671875 -6.78125 C 1.359375 -6.78125 0.734375 -6.78125 0.375 -6.8125 L 0.375 -6.5 L 0.5625 -6.5 C 1.109375 -6.5 1.296875 -6.4375 1.484375 -6.15625 L 3.3125 -3.375 L 1.6875 -0.96875 C 1.546875 -0.765625 1.25 -0.3125 0.234375 -0.3125 L 0.234375 0 C 0.59375 -0.015625 1.015625 -0.03125 1.34375 -0.03125 C 1.71875 -0.03125 2.265625 -0.03125 2.625 0 L 2.625 -0.3125 C 2.15625 -0.3125 2 -0.59375 2 -0.765625 C 2 -0.859375 2.03125 -0.890625 2.09375 -1 L 3.515625 -3.09375 L 5.078125 -0.71875 C 5.109375 -0.671875 5.140625 -0.640625 5.140625 -0.609375 C 5.140625 -0.484375 4.921875 -0.3125 4.484375 -0.3125 L 4.484375 0 C 4.828125 -0.03125 5.5625 -0.03125 5.9375 -0.03125 C 6.359375 -0.03125 6.8125 -0.015625 7.234375 0 L 7.234375 -0.3125 L 7.046875 -0.3125 C 6.53125 -0.3125 6.3125 -0.359375 6.109375 -0.671875 Z M 4 -3.84375 "
           id="path4426" />
      </symbol>
      <symbol
         overflow="visible"
         id="symbol5034">
        <path
           style="stroke:none;"
           d="M 4.359375 -7.09375 C 4.421875 -7.234375 4.421875 -7.25 4.421875 -7.28125 C 4.421875 -7.390625 4.328125 -7.484375 4.21875 -7.484375 C 4.078125 -7.484375 4.03125 -7.375 4 -7.28125 L 0.609375 2.109375 C 0.5625 2.25 0.5625 2.265625 0.5625 2.296875 C 0.5625 2.40625 0.640625 2.5 0.75 2.5 C 0.890625 2.5 0.9375 2.390625 0.96875 2.296875 Z M 4.359375 -7.09375 "
           id="path463" />
      </symbol>
      <symbol
         overflow="visible"
         id="symbol6638">
        <path
           style="stroke:none;"
           d="M 5.796875 -2.578125 L 5.546875 -2.578125 C 5.4375 -1.5625 5.296875 -0.3125 3.546875 -0.3125 L 2.734375 -0.3125 C 2.265625 -0.3125 2.25 -0.375 2.25 -0.703125 L 2.25 -6.015625 C 2.25 -6.359375 2.25 -6.5 3.1875 -6.5 L 3.515625 -6.5 L 3.515625 -6.8125 C 3.15625 -6.78125 2.25 -6.78125 1.84375 -6.78125 C 1.453125 -6.78125 0.671875 -6.78125 0.328125 -6.8125 L 0.328125 -6.5 L 0.5625 -6.5 C 1.328125 -6.5 1.359375 -6.390625 1.359375 -6.03125 L 1.359375 -0.78125 C 1.359375 -0.421875 1.328125 -0.3125 0.5625 -0.3125 L 0.328125 -0.3125 L 0.328125 0 L 5.515625 0 Z M 5.796875 -2.578125 "
           id="path8377" />
      </symbol>
      <symbol
         overflow="visible"
         id="symbol4204">
        <path
           style="stroke:none;"
           d=""
           id="path4819" />
      </symbol>
      <symbol
         overflow="visible"
         id="symbol4286">
        <path
           style="stroke:none;"
           d="M 3.125 -4.8125 C 3.09375 -4.921875 3.0625 -4.96875 2.9375 -4.96875 C 2.796875 -4.96875 2.78125 -4.921875 2.734375 -4.8125 L 1.125 -0.734375 C 1.0625 -0.5625 0.9375 -0.25 0.3125 -0.25 L 0.3125 0 C 0.546875 -0.015625 0.796875 -0.03125 1.03125 -0.03125 C 1.3125 -0.03125 1.828125 0 1.875 0 L 1.875 -0.25 C 1.5625 -0.25 1.359375 -0.390625 1.359375 -0.578125 C 1.359375 -0.640625 1.375 -0.65625 1.40625 -0.71875 L 1.734375 -1.578125 L 3.71875 -1.578125 L 4.125 -0.5625 C 4.125 -0.53125 4.15625 -0.484375 4.15625 -0.453125 C 4.15625 -0.25 3.78125 -0.25 3.59375 -0.25 L 3.59375 0 C 3.9375 -0.015625 4.390625 -0.03125 4.625 -0.03125 C 4.953125 -0.03125 5.484375 0 5.546875 0 L 5.546875 -0.25 L 5.421875 -0.25 C 4.953125 -0.25 4.90625 -0.328125 4.828125 -0.515625 Z M 2.71875 -4.09375 L 3.609375 -1.828125 L 1.828125 -1.828125 Z M 2.71875 -4.09375 "
           id="path1943" />
      </symbol>
    </g>
  </defs>
  <sodipodi:namedview
     id="base"
     pagecolor="#ffffff"
     bordercolor="#666666"
     borderopacity="1.0"
     inkscape:pageopacity="0.0"
     inkscape:pageshadow="2"
     inkscape:zoom="0.98994949"
     inkscape:cx="257.20166"
     inkscape:cy="497.96914"
     inkscape:document-units="mm"
     inkscape:current-layer="layer1"
     inkscape:document-rotation="0"
     showgrid="true"
     inkscape:snap-bbox="true"
     inkscape:snap-bbox-midpoints="true"
     inkscape:window-width="1842"
     inkscape:window-height="1057"
     inkscape:window-x="-8"
     inkscape:window-y="-8"
     inkscape:window-maximized="1">
    <inkscape:grid
       type="xygrid"
       id="grid74"
       spacingx="7.33333"
       spacingy="10.41667"
       units="mm"
       empspacing="4" />
  </sodipodi:namedview>
  <metadata
     id="metadata69">
    <rdf:RDF>
      <cc:Work
         rdf:about="">
        <dc:format>image/svg+xml</dc:format>
        <dc:type
           rdf:resource="http://purl.org/dc/dcmitype/StillImage" />
        <dc:title />
      </cc:Work>
    </rdf:RDF>
  </metadata>
  <g
     inkscape:groupmode="layer"
     id="layer3"
     inkscape:label="背景"
     sodipodi:insensitive="true">
    <path
       d="m 139.96336,258.8655 c 31.48958,-3.6374 43.33715,-16.31638 43.33715,-28.26787 0,-12.57504 -12.88683,-24.42261 -29.82677,-24.52653 0,-0.51963 -0.10392,-1.03926 -0.20785,-1.45497 -0.72748,-1.97459 -1.87067,-2.90993 -2.90993,-2.90993 -0.8314,0 -1.55889,0.72749 -1.55889,2.28638 0,0.51963 0.10393,1.24711 0.31178,1.87066 v 0.41571 c -2.90993,0.31178 -5.92378,0.93533 -9.04156,1.97459 0.10393,-2.806 0.20785,-5.30022 0.31178,-7.48267 7.48267,-1.14319 14.86142,-3.94919 19.64201,-7.27482 2.07852,-1.45496 2.90993,-2.59815 2.90993,-3.53348 0,-1.45497 -1.76674,-2.18245 -3.84526,-2.18245 -1.66282,0 -3.53349,0.4157 -5.1963,1.55889 -3.32563,2.49422 -8.0023,4.98845 -13.1986,6.33949 0.31177,-4.15704 0.62355,-7.1709 0.62355,-9.24942 0,-4.15704 -1.03926,-5.09237 -4.78059,-6.85912 -1.24712,-0.72748 -2.3903,-0.93533 -3.22171,-0.93533 -1.35104,0 -2.07852,0.72748 -2.07852,1.76674 0,1.03926 0.72748,2.49423 2.49422,3.84527 1.14319,1.14318 1.66282,5.09237 1.66282,12.57504 -1.14319,0.10393 -2.18245,0.20785 -3.32563,0.20785 -4.26097,0 -8.41801,-1.03926 -12.05542,-3.6374 -1.14318,-0.93533 -2.07852,-1.24711 -2.70207,-1.24711 -0.83141,0 -1.24712,0.4157 -1.24712,1.14319 0,0.72748 0.51963,1.55889 1.55889,2.59815 4.05312,4.15704 10.70438,5.612 17.77135,5.40415 l -0.20785,9.04156 c -3.94919,1.87066 -8.0023,4.57275 -11.95149,7.89838 -9.45727,8.21015 -13.1986,16.10853 -13.1986,21.92838 0,6.23556 4.05311,10.18475 9.56119,10.18475 4.36489,0 9.56119,-2.49422 14.65356,-8.21015 0.10393,3.53348 1.55889,5.1963 3.01386,5.1963 1.66281,0 3.2217,-2.07852 3.01385,-6.33949 l -0.20785,-6.54734 c 7.37875,-10.3926 11.22401,-18.3949 12.7829,-23.69512 13.09467,0.62355 23.48728,9.45726 23.48728,19.53808 0,9.76905 -9.87298,20.68128 -36.47803,25.9815 -1.45497,0.31178 -2.07852,0.93534 -2.07852,1.45497 0,0.62355 0.62355,1.14318 1.97459,1.14318 0,0 0.10393,0 0.20785,-10e-6 z m -6.54733,-22.96764 c -4.57275,5.40415 -8.72979,7.58661 -11.84757,7.58661 -3.01385,0 -4.98845,-2.07853 -4.98845,-5.71594 0,-3.94919 2.49423,-9.5612 8.62586,-15.5889 3.22171,-3.11778 6.44341,-5.50808 9.76905,-7.27482 l -0.62356,19.84986 z m 6.54733,-8.62586 c -0.10392,-2.18245 -0.10392,-4.36489 -0.10392,-6.33949 0,-3.01385 0,-5.71593 0.10392,-8.31408 2.90993,-1.03926 5.71593,-1.55889 8.52194,-1.87066 -1.24712,4.26097 -4.26097,10.28867 -8.52194,16.52423 z"
       style="font-style:normal;font-variant:normal;font-weight:normal;font-stretch:normal;font-size:103.926px;line-height:1.25;font-family:HannariMincho;-inkscape-font-specification:HannariMincho;letter-spacing:0px;display:inline;fill:#cccccc;stroke-width:2.59815"
       id="path68" />
    <g
       aria-label="A"
       id="text64"
       style="font-size:64.5959px;line-height:1.25;font-family:'Latin Modern Math';-inkscape-font-specification:'Latin Modern Math';letter-spacing:0px;fill:#cccccc;stroke-width:1.6149">
      <path
         d="m 190.33851,179.31079 v -1.87328 c -4.19873,0 -5.36146,0 -6.2658,-2.64843 L 169.9908,134.35204 c -0.25838,-0.77515 -0.38757,-1.16272 -1.29192,-1.16272 -0.90434,0 -1.03353,0.19379 -1.35651,1.22732 l -13.50054,38.62835 c -0.90435,2.64843 -2.71303,4.32792 -6.84717,4.39252 v 1.87328 l 6.20121,-0.12919 c 1.80868,0 4.90929,0 6.58878,0.12919 v -1.87328 c -2.71303,-0.0646 -4.32793,-1.42111 -4.32793,-3.2298 0,-0.38757 0,-0.51676 0.32298,-1.35651 l 2.97141,-8.59125 h 16.27817 l 3.55278,10.14155 c 0.32298,0.77515 0.32298,0.90435 0.32298,1.09813 0,1.93788 -3.2944,1.93788 -4.90929,1.93788 v 1.87328 c 1.4857,-0.12919 6.58878,-0.12919 8.39746,-0.12919 1.80869,0 6.45959,0 7.9453,0.12919 z m -15.95519,-16.92413 h -14.98625 l 7.49313,-21.51043 z"
         style="font-style:normal;font-variant:normal;font-weight:normal;font-stretch:normal;font-family:'Latin Modern Roman';-inkscape-font-specification:'Latin Modern Roman, ';fill:#cccccc;stroke-width:1.6149"
         id="path61" />
    </g>
  </g>
  <g
     inkscape:label="テキスト"
     inkscape:groupmode="layer"
     id="layer1"
     style="display:inline">
    <text
       xml:space="preserve"
       style="font-style:normal;font-weight:normal;font-size:8.57261px;line-height:1.25;font-family:sans-serif;letter-spacing:0px;display:inline;fill:#000000;fill-opacity:1;stroke:none;stroke-width:0.214315"
       x="87.828499"
       y="211.51813"
       id="text923"><tspan
         sodipodi:role="line"
         id="tspan921"
         x="87.828499"
         y="211.51813"
         style="font-style:normal;font-variant:normal;font-weight:normal;font-stretch:normal;font-size:8.57261px;font-family:'Source Han Serif JP';-inkscape-font-specification:'Source Han Serif JP, Normal';font-variant-ligatures:normal;font-variant-caps:normal;font-variant-numeric:normal;font-variant-east-asian:normal;text-align:center;text-anchor:middle;stroke-width:0.214315">calamari_dev</tspan></text>
    <text
       xml:space="preserve"
       style="font-size:25.399px;line-height:1.25;font-family:sans-serif;letter-spacing:0px;display:inline;fill:#000000;fill-opacity:1;stroke-width:0.635048;stroke-miterlimit:4;stroke-dasharray:none"
       x="87.847557"
       y="58.748306"
       id="text52"><tspan
         x="87.847557"
         y="58.748306"
         style="font-style:normal;font-variant:normal;font-weight:normal;font-stretch:normal;font-family:'Latin Modern Roman';-inkscape-font-specification:'Latin Modern Roman, ';text-align:center;text-anchor:middle;fill:#000000;fill-opacity:1;stroke-width:0.635048;stroke-miterlimit:4;stroke-dasharray:none"
         dx="0 0 0 0 0 0 0 0 0 0 -4.0188217 -3.3155279 0 0 -8.7409372 -2.742846 -4.0188217 -3.3155279"
         dy="0 0 0 0 0 0 0 0 0 0 5.6263509 -5.6263509 -0.31520584 0.31520584 -2.5117636 5.1823549 5.6263509 -5.6263509"
         sodipodi:role="line"
         id="tspan888"><tspan
           dx="0 -4.0188217 -3.3155279 0 0 -8.7409372 -2.742846 -4.0188217 -3.3155279"
           dy="0 5.6263509 -5.6263509 -0.31520584 0.31520584 -2.5117636 5.1823549 5.6263509 -5.6263509"
           id="tspan890"
           style="font-style:normal;font-variant:normal;font-weight:normal;font-stretch:normal;font-family:'Latin Modern Roman';-inkscape-font-specification:'Latin Modern Roman, ';text-align:center;text-anchor:middle;fill:#000000;fill-opacity:1;stroke-width:0.635048;stroke-miterlimit:4;stroke-dasharray:none">TEX/L<tspan
   style="font-style:normal;font-variant:normal;font-weight:normal;font-stretch:normal;font-size:17.6145px;font-family:'Latin Modern Roman';-inkscape-font-specification:'Latin Modern Roman, ';text-align:center;text-anchor:middle;fill:#000000;fill-opacity:1;stroke-width:0.635048;stroke-miterlimit:4;stroke-dasharray:none"
   id="tspan54"
   dy="-5.1823549">A</tspan>TEX</tspan></tspan></text>
    <text
       xml:space="preserve"
       style="font-size:25.399px;line-height:1.25;font-family:sans-serif;letter-spacing:0px;display:inline;fill:#000000;fill-opacity:1;stroke-width:0.635048;stroke-miterlimit:4;stroke-dasharray:none"
       x="87.011475"
       y="89.686546"
       id="text116"><tspan
         x="87.011475"
         y="89.686546"
         style="font-style:normal;font-variant:normal;font-weight:normal;font-stretch:normal;font-size:20.3807px;font-family:HannariMincho;-inkscape-font-specification:HannariMincho;text-align:center;text-anchor:middle;fill:#000000;fill-opacity:1;stroke-width:0.635048;stroke-miterlimit:4;stroke-dasharray:none"
         dx="0 -1.3087208 0 -1.0067084 0 0 0 0 0 0 0 0 0 0 0 -4.0188217 -3.3155279 0 0 -8.7409372 -2.742846 -4.0188217 -3.3155279"
         dy="1.9127458 -0.70469612 0 -0.50335419 0.50335419 0 0 0 0 0 0 0 0 0 0 5.6263509 -5.6263509 -0.31520584 0.31520584 -2.5117636 5.1823549 5.6263509 -5.6263509"
         sodipodi:role="line"
         id="tspan893">ことはじめ</tspan></text>
    <text
       xml:space="preserve"
       style="font-size:25.399px;line-height:1.25;font-family:sans-serif;letter-spacing:0px;display:inline;fill:#000000;fill-opacity:1;stroke-width:0.635048;stroke-miterlimit:4;stroke-dasharray:none"
       x="87.847557"
       y="122.57523"
       id="text119"><tspan
         x="87.847557"
         y="122.57523"
         style="font-style:normal;font-variant:normal;font-weight:normal;font-stretch:normal;font-family:'Latin Modern Roman';-inkscape-font-specification:'Latin Modern Roman, ';fill:#000000;fill-opacity:1;stroke-width:0.635048;stroke-miterlimit:4;stroke-dasharray:none"
         dx="0 -4.0188217 -3.3155279 0 0 -8.7409372 -2.742846 -4.0188217 -3.3155279"
         dy="0 5.6263509 -5.6263509 -0.31520584 0.31520584 -2.5117636 5.1823549 5.6263509 -5.6263509"
         sodipodi:role="line"
         id="tspan884" /></text>
    <text
       xml:space="preserve"
       style="font-size:25.399px;line-height:1.25;font-family:sans-serif;letter-spacing:0px;display:inline;fill:#000000;fill-opacity:1;stroke-width:0.635048;stroke-miterlimit:4;stroke-dasharray:none"
       x="87.847557"
       y="154.32397"
       id="text122"><tspan
         x="87.847557"
         y="154.32397"
         style="font-style:normal;font-variant:normal;font-weight:normal;font-stretch:normal;font-family:'Latin Modern Roman';-inkscape-font-specification:'Latin Modern Roman, ';fill:#000000;fill-opacity:1;stroke-width:0.635048;stroke-miterlimit:4;stroke-dasharray:none"
         dx="0 -4.0188217 -3.3155279 0 0 -8.7409372 -2.742846 -4.0188217 -3.3155279"
         dy="0 5.6263509 -5.6263509 -0.31520584 0.31520584 -2.5117636 5.1823549 5.6263509 -5.6263509"
         sodipodi:role="line"
         id="tspan886" /></text>
    <text
       xml:space="preserve"
       style="font-size:10.5833px;line-height:1.25;font-family:'Latin Modern Math';-inkscape-font-specification:'Latin Modern Math';letter-spacing:0px;stroke-width:0.264584"
       x="88.264542"
       y="118.31398"
       id="text43"><tspan
         sodipodi:role="line"
         id="tspan41"
         x="88.264542"
         y="118.31398"
         style="font-style:normal;font-variant:normal;font-weight:normal;font-stretch:normal;font-family:'Source Han Serif JP';-inkscape-font-specification:'Source Han Serif JP';text-align:center;text-anchor:middle;stroke-width:0.264584">ver.0.1.0</tspan></text>
  </g>
</svg>
