<?xml version="1.0" encoding="UTF-8" standalone="no"?>
<svg
   xmlns:dc="http://purl.org/dc/elements/1.1/"
   xmlns:cc="http://creativecommons.org/ns#"
   xmlns:rdf="http://www.w3.org/1999/02/22-rdf-syntax-ns#"
   xmlns:svg="http://www.w3.org/2000/svg"
   xmlns="http://www.w3.org/2000/svg"
   xmlns:xlink="http://www.w3.org/1999/xlink"
   xmlns:sodipodi="http://sodipodi.sourceforge.net/DTD/sodipodi-0.dtd"
   xmlns:inkscape="http://www.inkscape.org/namespaces/inkscape"
   width="182mm"
   height="257mm"
   viewBox="0 0 182 257"
   version="1.1"
   id="svg8"
   inkscape:version="1.0.2-2 (e86c870879, 2021-01-15)"
   sodipodi:docname="titlepage.svg">
  <defs
     id="defs2">
    <g
       id="g1775">
      <symbol
         overflow="visible"
         id="symbol6983">
        <path
           style="stroke:none;"
           d=""
           id="path5507" />
      </symbol>
      <symbol
         overflow="visible"
         id="symbol1454">
        <path
           style="stroke:none;"
           d="M 6.640625 -6.75 L 0.546875 -6.75 L 0.359375 -4.5 L 0.609375 -4.5 C 0.75 -6.109375 0.890625 -6.4375 2.40625 -6.4375 C 2.578125 -6.4375 2.84375 -6.4375 2.9375 -6.421875 C 3.15625 -6.375 3.15625 -6.265625 3.15625 -6.046875 L 3.15625 -0.78125 C 3.15625 -0.453125 3.15625 -0.3125 2.109375 -0.3125 L 1.703125 -0.3125 L 1.703125 0 C 2.109375 -0.03125 3.125 -0.03125 3.59375 -0.03125 C 4.046875 -0.03125 5.078125 -0.03125 5.484375 0 L 5.484375 -0.3125 L 5.078125 -0.3125 C 4.03125 -0.3125 4.03125 -0.453125 4.03125 -0.78125 L 4.03125 -6.046875 C 4.03125 -6.234375 4.03125 -6.375 4.21875 -6.421875 C 4.328125 -6.4375 4.59375 -6.4375 4.78125 -6.4375 C 6.296875 -6.4375 6.4375 -6.109375 6.578125 -4.5 L 6.828125 -4.5 Z M 6.640625 -6.75 "
           id="path8282" />
      </symbol>
      <symbol
         overflow="visible"
         id="symbol7488">
        <path
           style="stroke:none;"
           d="M 1.359375 -0.78125 C 1.359375 -0.421875 1.328125 -0.3125 0.5625 -0.3125 L 0.328125 -0.3125 L 0.328125 0 L 6.078125 0 L 6.5 -2.578125 L 6.25 -2.578125 C 6 -1.03125 5.765625 -0.3125 4.0625 -0.3125 L 2.734375 -0.3125 C 2.265625 -0.3125 2.25 -0.375 2.25 -0.703125 L 2.25 -3.375 L 3.140625 -3.375 C 4.109375 -3.375 4.21875 -3.046875 4.21875 -2.203125 L 4.46875 -2.203125 L 4.46875 -4.84375 L 4.21875 -4.84375 C 4.21875 -3.984375 4.109375 -3.671875 3.140625 -3.671875 L 2.25 -3.671875 L 2.25 -6.078125 C 2.25 -6.40625 2.265625 -6.46875 2.734375 -6.46875 L 4.015625 -6.46875 C 5.546875 -6.46875 5.8125 -5.921875 5.96875 -4.53125 L 6.21875 -4.53125 L 5.9375 -6.78125 L 0.328125 -6.78125 L 0.328125 -6.46875 L 0.5625 -6.46875 C 1.328125 -6.46875 1.359375 -6.359375 1.359375 -6 Z M 1.359375 -0.78125 "
           id="path6662" />
      </symbol>
      <symbol
         overflow="visible"
         id="symbol8610">
        <path
           style="stroke:none;"
           d="M 4 -3.84375 L 5.375 -5.859375 C 5.59375 -6.171875 5.9375 -6.484375 6.8125 -6.5 L 6.8125 -6.8125 C 6.4375 -6.796875 5.96875 -6.78125 5.71875 -6.78125 C 5.3125 -6.78125 4.828125 -6.78125 4.4375 -6.8125 L 4.4375 -6.5 C 4.828125 -6.484375 5.046875 -6.265625 5.046875 -6.046875 C 5.046875 -5.9375 5.03125 -5.921875 4.96875 -5.8125 L 3.828125 -4.125 L 2.546875 -6.046875 C 2.515625 -6.078125 2.46875 -6.15625 2.46875 -6.203125 C 2.46875 -6.3125 2.6875 -6.484375 3.125 -6.5 L 3.125 -6.8125 C 2.765625 -6.78125 2.046875 -6.78125 1.671875 -6.78125 C 1.359375 -6.78125 0.734375 -6.78125 0.375 -6.8125 L 0.375 -6.5 L 0.5625 -6.5 C 1.109375 -6.5 1.296875 -6.4375 1.484375 -6.15625 L 3.3125 -3.375 L 1.6875 -0.96875 C 1.546875 -0.765625 1.25 -0.3125 0.234375 -0.3125 L 0.234375 0 C 0.59375 -0.015625 1.015625 -0.03125 1.34375 -0.03125 C 1.71875 -0.03125 2.265625 -0.03125 2.625 0 L 2.625 -0.3125 C 2.15625 -0.3125 2 -0.59375 2 -0.765625 C 2 -0.859375 2.03125 -0.890625 2.09375 -1 L 3.515625 -3.09375 L 5.078125 -0.71875 C 5.109375 -0.671875 5.140625 -0.640625 5.140625 -0.609375 C 5.140625 -0.484375 4.921875 -0.3125 4.484375 -0.3125 L 4.484375 0 C 4.828125 -0.03125 5.5625 -0.03125 5.9375 -0.03125 C 6.359375 -0.03125 6.8125 -0.015625 7.234375 0 L 7.234375 -0.3125 L 7.046875 -0.3125 C 6.53125 -0.3125 6.3125 -0.359375 6.109375 -0.671875 Z M 4 -3.84375 "
           id="path8741" />
      </symbol>
      <symbol
         overflow="visible"
         id="symbol7046">
        <path
           style="stroke:none;"
           d="M 4.359375 -7.09375 C 4.421875 -7.234375 4.421875 -7.25 4.421875 -7.28125 C 4.421875 -7.390625 4.328125 -7.484375 4.21875 -7.484375 C 4.078125 -7.484375 4.03125 -7.375 4 -7.28125 L 0.609375 2.109375 C 0.5625 2.25 0.5625 2.265625 0.5625 2.296875 C 0.5625 2.40625 0.640625 2.5 0.75 2.5 C 0.890625 2.5 0.9375 2.390625 0.96875 2.296875 Z M 4.359375 -7.09375 "
           id="path519" />
      </symbol>
      <symbol
         overflow="visible"
         id="symbol1175">
        <path
           style="stroke:none;"
           d="M 5.796875 -2.578125 L 5.546875 -2.578125 C 5.4375 -1.5625 5.296875 -0.3125 3.546875 -0.3125 L 2.734375 -0.3125 C 2.265625 -0.3125 2.25 -0.375 2.25 -0.703125 L 2.25 -6.015625 C 2.25 -6.359375 2.25 -6.5 3.1875 -6.5 L 3.515625 -6.5 L 3.515625 -6.8125 C 3.15625 -6.78125 2.25 -6.78125 1.84375 -6.78125 C 1.453125 -6.78125 0.671875 -6.78125 0.328125 -6.8125 L 0.328125 -6.5 L 0.5625 -6.5 C 1.328125 -6.5 1.359375 -6.390625 1.359375 -6.03125 L 1.359375 -0.78125 C 1.359375 -0.421875 1.328125 -0.3125 0.5625 -0.3125 L 0.328125 -0.3125 L 0.328125 0 L 5.515625 0 Z M 5.796875 -2.578125 "
           id="path5143" />
      </symbol>
      <symbol
         overflow="visible"
         id="symbol938">
        <path
           style="stroke:none;"
           d=""
           id="path790" />
      </symbol>
      <symbol
         overflow="visible"
         id="symbol6201">
        <path
           style="stroke:none;"
           d="M 3.125 -4.8125 C 3.09375 -4.921875 3.0625 -4.96875 2.9375 -4.96875 C 2.796875 -4.96875 2.78125 -4.921875 2.734375 -4.8125 L 1.125 -0.734375 C 1.0625 -0.5625 0.9375 -0.25 0.3125 -0.25 L 0.3125 0 C 0.546875 -0.015625 0.796875 -0.03125 1.03125 -0.03125 C 1.3125 -0.03125 1.828125 0 1.875 0 L 1.875 -0.25 C 1.5625 -0.25 1.359375 -0.390625 1.359375 -0.578125 C 1.359375 -0.640625 1.375 -0.65625 1.40625 -0.71875 L 1.734375 -1.578125 L 3.71875 -1.578125 L 4.125 -0.5625 C 4.125 -0.53125 4.15625 -0.484375 4.15625 -0.453125 C 4.15625 -0.25 3.78125 -0.25 3.59375 -0.25 L 3.59375 0 C 3.9375 -0.015625 4.390625 -0.03125 4.625 -0.03125 C 4.953125 -0.03125 5.484375 0 5.546875 0 L 5.546875 -0.25 L 5.421875 -0.25 C 4.953125 -0.25 4.90625 -0.328125 4.828125 -0.515625 Z M 2.71875 -4.09375 L 3.609375 -1.828125 L 1.828125 -1.828125 Z M 2.71875 -4.09375 "
           id="path7160" />
      </symbol>
    </g>
  </defs>
  <sodipodi:namedview
     id="base"
     pagecolor="#ffffff"
     bordercolor="#666666"
     borderopacity="1.0"
     inkscape:pageopacity="0.0"
     inkscape:pageshadow="2"
     inkscape:zoom="0.68593502"
     inkscape:cx="349.61048"
     inkscape:cy="432.33597"
     inkscape:document-units="mm"
     inkscape:current-layer="layer1"
     inkscape:document-rotation="0"
     showgrid="true"
     inkscape:window-width="1842"
     inkscape:window-height="1057"
     inkscape:window-x="-8"
     inkscape:window-y="-8"
     inkscape:window-maximized="1"
     inkscape:snap-bbox="true"
     inkscape:snap-global="true"
     inkscape:snap-bbox-midpoints="true">
    <inkscape:grid
       type="xygrid"
       id="grid1402"
       visible="true"
       units="mm"
       spacingx="7.58333"
       empspacing="4"
       spacingy="10.70833" />
  </sodipodi:namedview>
  <metadata
     id="metadata5">
    <rdf:RDF>
      <cc:Work
         rdf:about="">
        <dc:format>image/svg+xml</dc:format>
        <dc:type
           rdf:resource="http://purl.org/dc/dcmitype/StillImage" />
        <dc:title></dc:title>
      </cc:Work>
    </rdf:RDF>
  </metadata>
  <g
     inkscape:groupmode="layer"
     id="layer2"
     inkscape:label="レイヤー 2"
     style="display:none">
    <g
       inkscape:label=""
       transform="matrix(2.425194,0,0,2.425194,-191.61125,-128.48216)"
       id="g879"
       style="fill:#00ffff;fill-opacity:1">
      <g
         id="g8968"
         style="fill:#00ffff;fill-opacity:1">
        <g
           style="fill:#00ffff;fill-opacity:1"
           id="g3578">
          <use
             xlink:href="#symbol1454"
             x="91.925003"
             y="81.962997"
             id="use3328"
             width="100%"
             height="100%"
             style="fill:#00ffff;fill-opacity:1" />
        </g>
        <g
           style="fill:#00ffff;fill-opacity:1"
           id="g5087">
          <use
             xlink:href="#symbol7488"
             x="97.459999"
             y="84.108002"
             id="use7676"
             width="100%"
             height="100%"
             style="fill:#00ffff;fill-opacity:1" />
        </g>
        <g
           style="fill:#00ffff;fill-opacity:1"
           id="g7289">
          <use
             xlink:href="#symbol8610"
             x="102.995"
             y="81.962997"
             id="use8126"
             width="100%"
             height="100%"
             style="fill:#00ffff;fill-opacity:1" />
          <use
             xlink:href="#symbol7046"
             x="110.46695"
             y="81.962997"
             id="use1831"
             width="100%"
             height="100%"
             style="fill:#00ffff;fill-opacity:1" />
          <use
             xlink:href="#symbol1175"
             x="115.44825"
             y="81.962997"
             id="use545"
             width="100%"
             height="100%"
             style="fill:#00ffff;fill-opacity:1" />
        </g>
        <g
           style="fill:#00ffff;fill-opacity:1"
           id="g8461">
          <use
             xlink:href="#symbol6201"
             x="118.088"
             y="79.920998"
             id="use872"
             width="100%"
             height="100%"
             style="fill:#00ffff;fill-opacity:1" />
        </g>
        <g
           style="fill:#00ffff;fill-opacity:1"
           id="g745">
          <use
             xlink:href="#symbol1454"
             x="122.474"
             y="81.962997"
             id="use3146"
             width="100%"
             height="100%"
             style="fill:#00ffff;fill-opacity:1" />
        </g>
        <g
           style="fill:#00ffff;fill-opacity:1"
           id="g7373">
          <use
             xlink:href="#symbol7488"
             x="128.009"
             y="84.108002"
             id="use3176"
             width="100%"
             height="100%"
             style="fill:#00ffff;fill-opacity:1" />
        </g>
        <g
           style="fill:#00ffff;fill-opacity:1"
           id="g2231">
          <use
             xlink:href="#symbol8610"
             x="133.54401"
             y="81.962997"
             id="use7697"
             width="100%"
             height="100%"
             style="fill:#00ffff;fill-opacity:1" />
        </g>
      </g>
    </g>
    <text
       xml:space="preserve"
       style="font-style:normal;font-weight:normal;font-size:20.364px;line-height:1.25;font-family:sans-serif;display:inline;fill:#000000;fill-opacity:1;stroke:none;stroke-width:0.509099"
       x="90.012283"
       y="103.83838"
       id="text1406"
       inkscape:transform-center-x="9.4545692"
       inkscape:transform-center-y="-2.1732736e-05"><tspan
         sodipodi:role="line"
         id="tspan1404"
         x="90.012283"
         y="103.83838"
         style="font-style:normal;font-variant:normal;font-weight:normal;font-stretch:normal;font-size:20.364px;font-family:HannariMincho;-inkscape-font-specification:'HannariMincho, Normal';font-variant-ligatures:normal;font-variant-caps:normal;font-variant-numeric:normal;font-variant-east-asian:normal;text-align:center;text-anchor:middle;fill:#00ffff;fill-opacity:1;stroke-width:0.509099">ことはじめ</tspan></text>
  </g>
  <g
     inkscape:label="レイヤー 1"
     inkscape:groupmode="layer"
     id="layer1"
     style="display:inline">
    <text
       xml:space="preserve"
       style="font-style:normal;font-weight:normal;font-size:8.5726px;line-height:1.25;font-family:sans-serif;fill:#000000;fill-opacity:1;stroke:none;stroke-width:0.214315"
       x="58.248405"
       y="217.39418"
       id="text923"><tspan
         sodipodi:role="line"
         id="tspan921"
         x="58.248405"
         y="217.39418"
         style="font-style:normal;font-variant:normal;font-weight:normal;font-stretch:normal;font-size:8.5726px;font-family:'Source Han Serif JP';-inkscape-font-specification:'Source Han Serif JP, Normal';font-variant-ligatures:normal;font-variant-caps:normal;font-variant-numeric:normal;font-variant-east-asian:normal;stroke-width:0.214315">cuttlefish_math</tspan></text>
    <text
       xml:space="preserve"
       style="font-size:25.2297px;line-height:1.25;font-family:sans-serif;letter-spacing:0px;fill:#000000;fill-opacity:1;stroke-width:0.630816;stroke-miterlimit:4;stroke-dasharray:none"
       x="90.848572"
       y="71.023102"
       id="text52"><tspan
         x="90.848572"
         y="71.023102"
         style="font-style:normal;font-variant:normal;font-weight:normal;font-stretch:normal;font-family:'Latin Modern Roman';-inkscape-font-specification:'Latin Modern Roman, ';text-align:center;text-anchor:middle;fill:#000000;fill-opacity:1;stroke-width:0.630816;stroke-miterlimit:4;stroke-dasharray:none"
         dx="0 0 0 0 0 0 0 0 0 0 -3.9920416 -3.2934346 0 0 -8.6826906 -2.7245686 -3.9920416 -3.2934346"
         dy="0 0 0 0 0 0 0 0 0 0 5.5888586 -5.5888586 -0.3131054 0.3131054 -2.4950261 5.1478214 5.5888586 -5.5888586"
         sodipodi:role="line"
         id="tspan888"><tspan
           dx="0 -3.9920416 -3.2934346 0 0 -8.6826906 -2.7245686 -3.9920416 -3.2934346"
           dy="0 5.5888586 -5.5888586 -0.3131054 0.3131054 -2.4950261 5.1478214 5.5888586 -5.5888586"
           id="tspan890"
           style="font-style:normal;font-variant:normal;font-weight:normal;font-stretch:normal;font-family:'Latin Modern Roman';-inkscape-font-specification:'Latin Modern Roman, ';text-align:center;text-anchor:middle;fill:#000000;fill-opacity:1;stroke-width:0.630816;stroke-miterlimit:4;stroke-dasharray:none">TEX/L<tspan
   style="font-style:normal;font-variant:normal;font-weight:normal;font-stretch:normal;font-size:17.4971px;font-family:'Latin Modern Roman';-inkscape-font-specification:'Latin Modern Roman, ';text-align:center;text-anchor:middle;fill:#000000;fill-opacity:1;stroke-width:0.630816;stroke-miterlimit:4;stroke-dasharray:none"
   id="tspan54"
   dy="-5.1478214">A</tspan>TEX</tspan></tspan><tspan
         x="90.848572"
         y="102.56023"
         style="font-style:normal;font-variant:normal;font-weight:normal;font-stretch:normal;font-size:20.2449px;font-family:HannariMincho;-inkscape-font-specification:HannariMincho;text-align:center;text-anchor:middle;fill:#000000;fill-opacity:1;stroke-width:0.630816;stroke-miterlimit:4;stroke-dasharray:none"
         dx="0 -1.3 0 0 0 0 0 0 0 0 0 0 0 0 0 -3.9920416 -3.2934346 0 0 -8.6826906 -2.7245686 -3.9920416 -3.2934346"
         dy="1.7 -0.50000012 0 0 0 0 0 0 0 0 0 0 0 0 0 5.5888586 -5.5888586 -0.3131054 0.3131054 -2.4950261 5.1478214 5.5888586 -5.5888586"
         sodipodi:role="line"
         id="tspan893">ことはじめ</tspan><tspan
         x="90.848572"
         y="134.56839"
         style="font-style:normal;font-variant:normal;font-weight:normal;font-stretch:normal;font-family:'Latin Modern Roman';-inkscape-font-specification:'Latin Modern Roman, ';fill:#000000;fill-opacity:1;stroke-width:0.630816;stroke-miterlimit:4;stroke-dasharray:none"
         dx="0 -3.9920416 -3.2934346 0 0 -8.6826906 -2.7245686 -3.9920416 -3.2934346"
         dy="0 5.5888586 -5.5888586 -0.3131054 0.3131054 -2.4950261 5.1478214 5.5888586 -5.5888586"
         sodipodi:role="line"
         id="tspan884" /><tspan
         x="90.848572"
         y="166.10551"
         style="font-style:normal;font-variant:normal;font-weight:normal;font-stretch:normal;font-family:'Latin Modern Roman';-inkscape-font-specification:'Latin Modern Roman, ';fill:#000000;fill-opacity:1;stroke-width:0.630816;stroke-miterlimit:4;stroke-dasharray:none"
         dx="0 -3.9920416 -3.2934346 0 0 -8.6826906 -2.7245686 -3.9920416 -3.2934346"
         dy="0 5.5888586 -5.5888586 -0.3131054 0.3131054 -2.4950261 5.1478214 5.5888586 -5.5888586"
         sodipodi:role="line"
         id="tspan886" /></text>
    <text
       xml:space="preserve"
       style="font-size:10.5833px;line-height:1.25;font-family:sans-serif;letter-spacing:0px;stroke-width:0.264583"
       x="30.333321"
       y="32.124992"
       id="text934"><tspan
         id="tspan932"
         x="30.333321"
         y="32.124992"
         style="stroke-width:0.264583"
         sodipodi:role="line" /></text>
  </g>
</svg>
